<?xml version="1.0" encoding="utf-8"?>
<!-- Generator: Adobe Illustrator 22.1.0, SVG Export Plug-In . SVG Version: 6.00 Build 0)  -->
<svg version="1.1" id="Layer_1" xmlns="http://www.w3.org/2000/svg" xmlns:xlink="http://www.w3.org/1999/xlink" x="0px" y="0px"
	 width="792px" height="226.1px" viewBox="0 0 792 226.1" style="enable-background:new 0 0 792 226.1;" xml:space="preserve">
<style type="text/css">
	.st0{fill:#F1D77E;}
	.st1{fill:#ECC953;}
	.st2{fill:#E7BC27;}
	.st3{fill:#EDC07C;}
	.st4{fill:#E8AC52;}
	.st5{fill:#E19626;}
	.st6{fill:#DB8767;}
	.st7{fill:#D16643;}
	.st8{fill:#C94028;}
	.st9{fill:#C599B2;}
	.st10{fill:#B67E9F;}
	.st11{fill:#A9648E;}
	.st12{fill:#7D97BB;}
	.st13{fill:#577FAB;}
	.st14{fill:#256B9D;}
	.st15{fill:#66BA99;}
	.st16{fill:#539A70;}
	.st17{fill:#018A55;}
	.st18{fill:#D8DED0;}
</style>
<title>Asset5</title>
<path class="st0" d="M792,217.6H617.6v-20.7h-85.8v20.7l0,0l-9.6-22.6l-18.5,1.9v8.6h-51.4c-2.3-0.3-4.7-0.6-7.2-1v11.1l0,0
	l-3.5,0.6l-7.3,1.4v-7.4h-42.2v-4.6h42.2v-3.9h-76.5v15.9h-8.6l-23-20.6c0.4,0,0.7-0.1,1-0.1h-68.5v20.7l0,0l-0.8-1.6l0,0l-8.1-15.7
	v-3.4h-75.4v20.7H0v7.1h208.7v-17.3h41.1l8.9,17.3H293v-21.1l16.4,21.1h124.9l7.5-1.4v0.1l3.3-0.7c1.2,0.2,2.4,0.4,3.5,0.6l0.4,0.1
	l0,0c10.9,1.9,21.9,2.8,33,2.7c8.6,0,17.6-0.2,25.7-3.6c4.1-1.6,7.7-4.3,10.3-7.8c2.2-3.2,3.4-7,3.7-10.9c0-0.1,0.1-0.8,0.1-1.6l0,0
	l7.4,16.6l2.5,5.7h34.3V204h17.2v20.7H792V217.6z"/>
<path class="st1" d="M792,211.3H617.6v-20.7h-85.8v20.7l0,0l-9.6-22.6l-18.5,1.9v8.6h-51.4c-2.3-0.3-4.7-0.6-7.2-1v11.1l0,0
	l-3.5,0.6l-7.3,1.4v-7.4h-42.2v-4.6h42.2v-3.9h-76.5v16h-8.6l-23-20.6l1-0.1h-68.5v20.7l0,0l-0.8-1.6l0,0l-8.1-15.7v-3.4h-75.4v20.7
	H0v7.1h208.7v-17.3h41.1l8.9,17.3H293v-21.1l16.4,21.1h124.9l7.5-1.4v0.1l3.3-0.7c1.2,0.2,2.4,0.4,3.5,0.6l0.4,0.1l0,0
	c10.9,1.9,21.9,2.8,33,2.7c8.6,0,17.6-0.2,25.7-3.6c4.1-1.6,7.7-4.3,10.3-7.8c2.2-3.3,3.4-7,3.7-10.9c0-0.2,0.1-0.8,0.1-1.6l0,0
	l7.4,16.7l2.5,5.7h34.3v-20.7h17.2v20.7H792V211.3z"/>
<path class="st2" d="M792,204.4H617.6v-20.7h-85.8v20.7l0,0l-9.6-22.6l-18.5,1.9v8.6h-51.4c-2.3-0.3-4.7-0.6-7.2-1v11.2l0,0
	l-3.5,0.6l-7.3,1.4v-7.4h-42.2v-4.6h42.2v-3.9h-76.5v15.9h-8.6l-23-20.6l1-0.1h-68.5v20.7l0,0l-0.8-1.6l0,0l-8.1-15.7v-3.4h-75.4
	v20.7H0v7.1h208.7v-17.3h41.1l8.9,17.3H293v-21.1l16.4,21.1h124.9l7.5-1.4v0.1l3.3-0.7c1.2,0.2,2.4,0.4,3.5,0.6l0.4,0.1l0,0
	c10.9,1.9,21.9,2.8,33,2.7c8.6,0,17.6-0.2,25.7-3.6c4.1-1.6,7.7-4.3,10.3-7.8c2.2-3.2,3.4-7,3.7-10.9c0-0.1,0.1-0.8,0.1-1.6l0,0
	l7.4,16.6l2.5,5.7h34.3v-20.7h17.2v20.7H792V204.4z"/>
<path class="st3" d="M792,197.8H617.6v-20.7h-85.8v20.7l0,0l-9.6-22.6l-18.5,1.9v8.6h-51.4c-2.3-0.3-4.7-0.6-7.2-1v11.2l0,0
	l-3.5,0.6l-7.3,1.4v-7.4h-42.2v-4.6h42.2v-3.9h-76.5v15.9h-8.6l-23-20.6l1-0.1h-68.5v20.7l0,0l-0.8-1.6l0,0l-8.1-15.7v-3.4h-75.4
	v20.7H0v7.1h208.7v-17.3h41.1l8.9,17.3H293v-21.1l16.4,21.1h124.9l7.5-1.4v0.1l3.3-0.7c1.2,0.2,2.4,0.4,3.5,0.6l0.4,0.1l0,0
	c10.9,1.9,21.9,2.8,33,2.7c8.6,0,17.6-0.2,25.7-3.6c4.1-1.6,7.7-4.3,10.3-7.8c2.2-3.3,3.4-7,3.7-10.9c0-0.2,0.1-0.8,0.1-1.6l0,0
	l7.4,16.6l2.5,5.7h34.3v-20.7h17.2v20.7H792V197.8z"/>
<path class="st4" d="M792,191.5H617.6v-20.7h-85.8v20.7l0,0l-9.6-22.6l-18.5,1.9v8.6h-51.4c-2.3-0.3-4.7-0.6-7.2-1v11.2l0,0
	l-3.5,0.6l-7.3,1.4v-7.4h-42.2v-4.6h42.2v-3.9h-76.5v15.9h-8.6l-23-20.6l1-0.1h-68.5v20.7l0,0l-0.8-1.6l0,0l-8.1-15.7v-3.4h-75.4
	v20.7H0v7.1h208.7v-17.3h41.1l8.9,17.3H293v-21.1l16.4,21.1h124.9l7.5-1.4v0.1l3.3-0.7c1.2,0.2,2.4,0.4,3.5,0.6l0.4,0.1l0,0
	c10.9,1.9,21.9,2.8,33,2.7c8.6,0,17.6-0.2,25.7-3.6c4.1-1.6,7.7-4.3,10.3-7.8c2.2-3.2,3.4-7,3.7-10.9c0-0.1,0.1-0.8,0.1-1.6l0,0
	l7.4,16.6l2.5,5.7h34.3V178h17.2v20.7H792V191.5z"/>
<path class="st5" d="M792,185H617.6v-20.7h-85.8V185l0,0l-9.6-22.6l-18.5,1.9v8.6h-51.4c-2.3-0.3-4.7-0.6-7.2-1V183l0,0l-3.5,0.6
	l-7.3,1.4v-7.4h-42.2V173h42.2v-4h-76.5v16h-8.6l-23-20.6l1-0.1h-68.5V185l0,0l-0.8-1.6l0,0l-8.1-15.7v-3.4h-75.4V185H0v7.1h208.7
	v-17.3h41.1l8.9,17.3H293V171l16.4,21.1h124.9l7.5-1.4v0.1l3.3-0.7c1.2,0.2,2.4,0.4,3.5,0.6l0.4,0.1l0,0c10.9,1.9,21.9,2.8,33,2.7
	c8.6,0,17.6-0.2,25.7-3.6c4.1-1.6,7.7-4.3,10.3-7.8c2.2-3.2,3.4-7,3.7-10.9c0-0.1,0.1-0.8,0.1-1.6l0,0l7.4,16.6l2.5,5.7h34.3v-20.7
	h17.2v20.7H792V185z"/>
<path class="st6" d="M792,178.4H617.6v-20.7h-85.8v20.7l0,0l-9.6-22.6l-18.5,1.9v8.6h-51.4c-2.3-0.3-4.7-0.7-7.2-1v11.2l0,0
	l-3.5,0.6l-7.3,1.4V171h-42.2v-4.6h42.2v-3.9h-76.5v15.9h-8.6l-23-20.6l1-0.1h-68.5v20.7l0,0l-0.8-1.6l0,0l-8.1-15.7v-3.4h-75.4
	v20.7H0v7.1h208.7v-17.3h41.1l8.9,17.3H293v-21.1l16.4,21.1h124.9l7.5-1.4v0.1l3.3-0.7l3.5,0.6l0.4,0.1l0,0
	c10.9,1.9,21.9,2.8,33,2.7c8.6,0,17.6-0.2,25.7-3.6c4.1-1.6,7.7-4.2,10.3-7.8c2.2-3.3,3.4-7,3.7-10.9c0-0.2,0.1-0.8,0.1-1.6l0,0
	l7.4,16.6l2.5,5.7h34.3v-20.7h17.2v20.7H792V178.4z"/>
<path class="st7" d="M792,172.4H617.6v-20.7h-85.8v20.7l0,0l-9.6-22.6l-18.5,1.9v8.6h-51.4c-2.3-0.3-4.7-0.6-7.2-1v11.1l0,0
	l-3.5,0.6l-7.3,1.4V165h-42.2v-4.6h42.2v-3.9h-76.5v16h-8.6l-23-20.6l1-0.1h-68.5v20.7l0,0l-0.8-1.6l0,0l-8.1-15.7v-3.4h-75.4v20.7
	H0v7.1h208.7v-17.3h41.1l8.9,17.3H293v-21.1l16.4,21.1h124.9l7.5-1.4v0.1l3.3-0.7c1.2,0.2,2.4,0.4,3.5,0.6l0.4,0.1l0,0
	c10.9,1.9,21.9,2.8,33,2.7c8.6,0,17.6-0.2,25.7-3.6c4.1-1.6,7.7-4.3,10.3-7.8c2.2-3.3,3.4-7,3.7-10.9c0-0.2,0.1-0.8,0.1-1.6l0,0
	l7.4,16.6l2.5,5.7h34.3v-20.7h17.2v20.7H792V172.4z"/>
<path class="st8" d="M792,165.5H617.6v-20.7h-85.8v20.7l0,0l-9.6-22.6l-18.5,1.9v8.6h-51.4c-2.3-0.3-4.7-0.6-7.2-1v11.2l0,0
	l-3.5,0.6l-7.3,1.4v-7.4h-42.2v-4.6h42.2v-3.9h-76.5v15.9h-8.6l-23-20.6l1-0.1h-68.5v20.7l0,0l-0.8-1.6l0,0l-8.1-15.7v-3.4h-75.4
	v20.7H0v7.1h208.7v-17.3h41.1l8.9,17.3H293v-21.1l16.4,21.1h124.9l7.5-1.4v0.1l3.3-0.7c1.2,0.2,2.4,0.4,3.5,0.6l0.4,0.1l0,0
	c10.9,1.9,21.9,2.8,33,2.7c8.6,0,17.6-0.2,25.7-3.6c4.1-1.6,7.7-4.2,10.3-7.8c2.2-3.2,3.4-7,3.7-10.9c0-0.1,0.1-0.8,0.1-1.6l0,0
	l7.4,16.6l2.5,5.7h34.3v-20.7h17.2v20.7H792V165.5z"/>
<path class="st9" d="M792,159.1H617.6v-20.7h-85.8v20.7l0,0l-9.6-22.6l-18.5,1.9v8.6h-51.4c-2.3-0.3-4.7-0.6-7.2-1v11.2l0,0
	l-3.5,0.6l-7.3,1.4v-7.4h-42.2v-4.6h42.2v-3.9h-76.5v16h-8.6l-23-20.6l1-0.1h-68.5v20.7l0,0l-0.8-1.6l0,0l-8.1-15.7v-3.4h-75.4v20.7
	H0v7.1h208.7v-17.4h41.1l8.9,17.3H293v-21.1l16.4,21.1h124.9l7.5-1.4v0.1l3.3-0.7c1.2,0.2,2.4,0.4,3.5,0.6l0.4,0.1l0,0
	c10.9,1.9,21.9,2.8,33,2.7c8.6,0,17.6-0.2,25.7-3.6c4.1-1.6,7.7-4.2,10.3-7.8c2.2-3.2,3.4-7,3.7-10.9c0-0.1,0.1-0.8,0.1-1.6l0,0
	l7.4,16.6l2.5,5.7h34.3v-20.7h17.2v20.7H792V159.1z"/>
<path class="st10" d="M792,152.8H617.6v-20.7h-85.8v20.7l0,0l-9.6-22.6l-18.5,1.9v8.6h-51.4c-2.3-0.3-4.7-0.7-7.2-1v11.2l0,0
	l-3.5,0.6l-7.3,1.4v-7.4h-42.2v-4.6h42.2v-3.9h-76.5v15.9h-8.6l-23-20.6l1-0.1h-68.5v20.7l0,0l-0.8-1.6l0,0l-8.1-15.7v-3.4h-75.4
	v20.7H0v7.1h208.7v-17.3h41.1l8.9,17.3H293v-21.1l16.4,21.1h124.9l7.5-1.4v0.1l3.3-0.7l3.5,0.6l0.4,0.1l0,0
	c10.9,1.9,21.9,2.8,33,2.7c8.6,0,17.6-0.2,25.7-3.6c4.1-1.6,7.7-4.2,10.3-7.7c2.2-3.3,3.4-7,3.7-10.9c0-0.2,0.1-0.8,0.1-1.6l0,0
	l7.4,16.7l2.5,5.7h34.3v-20.7h17.2v20.7H792V152.8z"/>
<path class="st11" d="M792,146.2H617.6v-20.7h-85.8v20.7l0,0l-9.6-22.6l-18.5,1.9v8.6h-51.4c-2.3-0.3-4.7-0.7-7.2-1.1v11.2l0,0
	l-3.5,0.6l-7.3,1.4v-7.4h-42.2v-4.6h42.2v-3.9h-76.5v15.9h-8.6l-23-20.6l1-0.1h-68.5v20.7l0,0l-0.8-1.6l0,0l-8.1-15.6v-3.4h-75.4
	v20.7H0v7.1h208.7v-17.4h41.1l8.9,17.3H293v-21.1l16.4,21.1h124.9l7.5-1.4v0.1l3.3-0.7l3.5,0.6l0.4,0.1l0,0
	c10.9,1.9,21.9,2.8,33,2.7c8.6,0,17.6-0.2,25.7-3.6c4.1-1.6,7.7-4.2,10.3-7.8c2.2-3.2,3.4-7,3.7-10.9c0-0.1,0.1-0.8,0.1-1.6l0,0
	l7.4,16.6l2.5,5.7h34.3v-20.7h17.2v20.7H792V146.2z"/>
<path class="st12" d="M792,139.6H617.6v-20.7h-85.8v20.7l0,0l-9.6-22.6l-18.5,1.9v8.6h-51.4c-2.3-0.3-4.7-0.7-7.2-1v11.2l0,0
	l-3.5,0.6l-7.3,1.4v-7.4h-42.2v-4.6h42.2v-3.9h-76.5v15.9h-8.6l-23-20.6l1-0.1h-68.5v20.7l0,0l-0.8-1.6l0,0l-8.1-15.7v-3.4h-75.4
	v20.7H0v7.1h208.7v-17.3h41.1l8.9,17.3H293v-21.1l16.4,21.1h124.9l7.5-1.4v0.1l3.3-0.7c1.2,0.2,2.4,0.4,3.5,0.6l0.4,0.1l0,0
	c10.9,1.9,21.9,2.8,33,2.7c8.6,0,17.6-0.2,25.7-3.6c4.1-1.6,7.7-4.3,10.3-7.8c2.2-3.2,3.4-7,3.7-10.9c0-0.2,0.1-0.8,0.1-1.6l0,0
	l7.4,16.6l2.5,5.7h34.3V126h17.2v20.7H792V139.6z"/>
<path class="st13" d="M792,133H617.6v-20.7h-85.8v20.7l0,0l-9.6-22.6l-18.5,1.9v8.6h-51.4c-2.3-0.3-4.7-0.7-7.2-1v11.2l0,0l-3.5,0.6
	l-7.3,1.4v-7.4h-42.2V121h42.2v-3.9h-76.5V133h-8.6l-23-20.6l1-0.1h-68.5V133l0,0l-0.8-1.6l0,0l-8.1-15.7v-3.4h-75.4V133H0v7.1
	h208.7v-17.3h41.1l8.9,17.3H293V119l16.4,21.1h124.9l7.5-1.4v0.1l3.3-0.7l3.5,0.6l0.4,0.1l0,0c10.9,1.9,21.9,2.8,33,2.7
	c8.6,0,17.6-0.2,25.7-3.6c4.1-1.5,7.7-4.2,10.3-7.7c2.2-3.3,3.4-7,3.7-10.9c0-0.2,0.1-0.7,0.1-1.6l0,0l7.4,16.7l2.5,5.7h34.3v-20.7
	h17.2v20.7H792V133z"/>
<path class="st14" d="M792,126.4H617.6v-20.7h-85.8v20.7l0,0l-9.6-22.6l-18.5,1.9v8.6h-51.4c-2.3-0.3-4.7-0.7-7.2-1v11.2l0,0
	l-3.5,0.6l-7.3,1.4V119h-42.2v-4.6h42.2v-3.9h-76.5v16h-8.6l-23-20.6l1-0.1h-68.5v20.7l0,0l-0.8-1.6l0,0l-8.1-15.7v-3.4h-75.4v20.7
	H0v7.1h208.7v-17.3h41.1l8.9,17.3H293v-21.1l16.4,21.1h124.9l7.5-1.4v0.1l3.3-0.7c1.2,0.2,2.4,0.4,3.5,0.6l0.4,0.1l0,0
	c10.9,1.9,21.9,2.8,33,2.7c8.6,0,17.6-0.2,25.7-3.6c4.1-1.6,7.7-4.3,10.3-7.8c2.2-3.2,3.4-7,3.7-10.9c0-0.2,0.1-0.8,0.1-1.6l0,0
	l7.4,16.7l2.5,5.7h34.3v-20.7h17.2v20.7H792V126.4z"/>
<path class="st15" d="M792,119.8H617.6V99.1h-85.8v20.7l0,0l-9.6-22.6l-18.5,1.9v8.6h-51.4c-2.3-0.3-4.7-0.7-7.2-1v11.1l0,0
	l-3.5,0.6l-7.3,1.3v-7.4h-42.2v-4.7h42.2v-3.9h-76.5v16h-8.6l-23-20.6l1-0.1h-68.5v20.7l0,0l-0.8-1.6l0,0l-8.1-15.7v-3.5h-75.4v20.7
	H0v7.1h208.7v-17.3h41.1l8.9,17.3H293v-21.1l16.4,21.1h124.9l7.5-1.4v0.1l3.3-0.7l3.5,0.6l0.4,0.1l0,0c10.9,1.9,21.9,2.8,33,2.7
	c8.6,0,17.6-0.2,25.7-3.6c4.1-1.6,7.7-4.2,10.3-7.7c2.2-3.3,3.4-7,3.7-10.9c0-0.2,0.1-0.8,0.1-1.6l0,0l7.4,16.7l2.5,5.7h34.3v-20.7
	h17.2v20.7H792V119.8z"/>
<path class="st16" d="M792,113.3H617.6V92.6h-85.8v20.7l0,0l-9.6-22.6l-18.5,1.9v8.6h-51.4c-2.3-0.3-4.7-0.7-7.2-1v11.2l0,0
	l-3.5,0.6l-7.3,1.3v-7.4h-42.2v-4.7h42.2v-3.9h-76.5v16h-8.6l-23-20.6l1-0.1h-68.5v20.7l0,0l-0.8-1.6l0,0L249.8,96v-3.4h-75.4v20.7
	H0v7.1h208.7v-17.3h41.1l8.9,17.3H293V99.3l16.4,21.1h124.9l7.5-1.4v0.1l3.3-0.7l3.5,0.6l0.4,0.1l0,0c10.9,1.9,21.9,2.8,33,2.7
	c8.6,0,17.6-0.2,25.7-3.6c4.1-1.6,7.7-4.2,10.3-7.7c2.2-3.3,3.4-7,3.7-10.9c0-0.2,0.1-0.8,0.1-1.6l0,0l7.4,16.7l2.5,5.7h34.3V99.7
	h17.2v20.7H792V113.3z"/>
<path class="st17" d="M792,106.9H617.6V86.2h-85.8v20.7l0,0l-9.6-22.6l-18.5,1.9v8.6h-51.4c-2.3-0.3-4.7-0.7-7.2-1V105l0,0l-3.5,0.6
	l-7.3,1.4v-7.4h-42.2v-4.6h42.2V91h-76.5v16h-8.6l-23-20.6l1-0.1h-68.5V107l0,0l-0.8-1.6l0,0l-8.1-15.7v-3.5h-75.4v20.7H0v7.1h208.7
	V96.8h41.1l8.9,17.3H293V93l16.4,21.1h124.9l7.5-1.4v0.1l3.3-0.7c1.2,0.2,2.4,0.4,3.5,0.6l0.4,0.1l0,0c10.9,1.9,21.9,2.8,33,2.7
	c8.6,0,17.6-0.2,25.7-3.6c4.1-1.6,7.7-4.3,10.3-7.8c2.2-3.2,3.4-7,3.7-10.9c0-0.2,0.1-0.8,0.1-1.6l0,0l7.4,16.7l2.5,5.7h34.3V93.4
	h17.2v20.7H792V106.9z"/>
<path class="st18" d="M208.7,89.6v17.3h-34.3V40.2h75.4v22.4h-41.1v6.7h41.1v20.3H208.7z"/>
<path class="st18" d="M309.4,106.9L293,85.8v21.1h-34.3V40.2H323c8.1,0,12.9,1.2,16.9,4.4c4.6,3.6,7.3,9.2,7.2,15
	c0,5.8-2.7,11.3-7.3,14.8c-3.8,2.9-7.1,4.1-13.6,4.8l23,27.7H309.4z M303.5,71.8c3.5,0,4.9-0.3,6.5-1.2c2-1.2,3.1-3.5,3.1-6.3
	c0-4.5-2.1-6.3-7.6-6.3H293v13.8H303.5z"/>
<path class="st18" d="M357.8,106.9V40.2h76.5v21.4h-42.2v6.2h42.2v16h-42.2v5.6h42.2v17.5L357.8,106.9z"/>
<path class="st18" d="M445.1,86.6c15,2.3,25.4,3.2,37.3,3.2c3,0,4.6-1,4.6-3c0-1.7-1.1-2.3-4.7-2.3h-5.6c-2.7,0-8.7-0.4-12.6-0.8
	c-8.4-0.9-13.5-3.2-16.9-7.6c-2.6-3.3-3.9-7.7-3.9-12.8c0-7.6,2.7-13.7,7.9-17.6c5.9-4.4,17.7-6.9,33.2-6.9
	c11.8,0,23.6,1.1,35.2,3.3v19.6c-8.9-1.2-17.9-2-26.9-2.3h-7.5c-4.6,0-6.4,0.9-6.4,3c0,1.7,1.4,2.7,3.7,2.7l12,0.1
	c6.9,0.1,13.3,1,17.2,2.5c6.3,2.4,10.5,9,10.5,16.6c-0.1,7.5-4,14.3-10.4,18.2c-7,4.4-14.4,5.8-29.7,5.8c-12.4,0.1-24.8-1-37-3.4
	L445.1,86.6z"/>
<path class="st18" d="M583.3,106.9V86.2h-17.2v20.7h-34.3V40.2h34.3v23.6h17.2V40.2h34.3v66.7H583.3z"/>
<path class="st5" d="M207.6,14.4c-3.8-0.4-7.7-0.6-11.6-0.6c-4.7,0-5.6,0.2-5.6,1.1c0,0.3,0.2,0.5,0.4,0.6c0.4,0.2,0.4,0.2,3.8,0.2
	c8.4,0.1,8.4,0.1,10.1,0.7c2.4,0.9,4,3.6,4,7.1c0,3.8-1.8,7-4.8,8.3c-2.7,1.2-6.7,1.8-12.4,1.8c-4.8-0.1-9.7-0.4-14.5-1l-0.6-7.9
	c4,0.5,8,0.8,11.9,0.9c1.9,0,3.7,0,5.6-0.2c0.3-0.1,0.5-0.5,0.5-0.8c0-0.6-0.4-0.9-1.4-0.9H192h-1.8c-4.8,0-9-0.6-10.7-1.5
	c-2.7-1.4-4.1-4.1-4.1-7.6c-0.1-3.1,1.5-6.1,4.3-7.6c2.2-1.2,6.3-1.7,13.2-1.7c4.7,0,11.2,0.3,14.6,0.6L207.6,14.4z"/>
<path class="st5" d="M249.9,22.3c0,3.8-1.3,6.6-3.7,8.3c-3.1,2-8,3-15,3s-12-1-15-3c-2.4-1.6-3.8-4.6-3.8-8.3V6H228v15.4
	c0,3.1,0.8,4,3.2,4s3.2-1,3.2-4V6h15.5V22.3z"/>
<path class="st5" d="M300.5,32.9V20c0-3.1-0.7-3.9-3.3-3.9c-2.8,0-3.7,1-3.7,4.1v12.7h-15.6V20.5c0-3.3-0.9-4.2-3.7-4.2
	c-2.6,0-3.5,1-3.5,3.8v12.8h-15.6V6h14.6v4.5c2.9-3.9,5.8-5.1,11.5-5.1c3.9,0,6.8,0.8,8.6,2.3c1.1,1,1.8,2.2,2.3,3.6
	c0.6-1.5,1.7-2.8,3-3.7c2.1-1.5,4.8-2.2,8.7-2.2C312,5.3,316,8.7,316,16v16.9H300.5z"/>
<path class="st5" d="M366.5,32.9V20c0-3.1-0.7-3.9-3.3-3.9c-2.8,0-3.7,1-3.7,4.1v12.7h-15.6V20.5c0-3.3-0.9-4.2-3.7-4.2
	c-2.6,0-3.5,1-3.5,3.8v12.8h-15.5V6h14.5v4.5c2.9-3.9,5.8-5.1,11.5-5.1c3.9,0,6.8,0.8,8.6,2.3c1.1,1,1.9,2.2,2.2,3.6
	c0.6-1.5,1.7-2.8,3-3.7c2.1-1.5,4.8-2.2,8.7-2.2c8.4,0,12.3,3.5,12.3,10.7v16.9H366.5z"/>
<path class="st5" d="M420.7,31.3c-7.7,1.8-11.5,2.3-16.5,2.3c-5.8,0-10.2-1-13.3-3.3s-4.6-5.6-4.6-10.4c0-5,2-9.4,5.4-11.7
	c3-2.1,7.6-3,14.4-3c7.7,0,12.7,1.6,15.4,4.9c1.6,2,2.7,6,2.7,9.8c0,0.6,0,1.3-0.1,2.4h-21.3c0,2.8,1.4,3.6,5.8,3.6
	c5.2-0.2,10.4-0.9,15.5-2.2L420.7,31.3z M411.5,16.2c0.1-0.9-0.2-1.9-0.7-2.7c-0.9-1.2-2.4-1.9-3.9-1.8c-3.1,0-4.6,1.3-5,4.5H411.5z
	"/>
<path class="st5" d="M428.1,32.9V6h14.5v6.9c0.8-3.4,1.8-5.2,3.5-6.4c1.1-0.8,2.7-1.2,5.3-1.2c1.1,0,2.2,0.1,3.3,0.2v15
	c-8.8-0.2-11.3,1-11.1,5.7V33L428.1,32.9z"/>
<path class="st2" d="M477.9,32.9v-8.7c4.8-1.5,9.4-3.5,13.8-6c3-1.8,4-3,4-4.6c0-1.5-1.1-2.8-2.7-2.8c-0.1,0-0.3,0-0.4,0
	c-1.9-0.1-3.5,1.3-3.8,3.2c-0.2,0.8-0.2,1.6-0.2,2.4h-11.4c0-0.9-0.1-1.7-0.1-2.2c0-4.8,1.8-8.7,4.9-11c2.8-2,6.8-3,12.6-3
	c5.7,0,9.6,1,12.2,3.1c2.4,1.9,3.7,4.8,3.7,7.8c0,3.9-1.9,6.7-5.9,8.8c-2.9,1.4-5.8,2.6-8.8,3.5h14.8V33L477.9,32.9z"/>
<path class="st2" d="M545.2,3.7c3.5,2.7,5.2,7.1,5.2,13.2c0,5.8-2,10.8-5.3,13.5c-2.9,2.3-6.8,3.4-13.1,3.4s-10.2-1.1-13.2-3.6
	c-3.1-2.8-5-7.9-5-13.5c0-5.9,2.2-10.9,5.8-13.4c2.8-1.9,8-3.2,12.9-3.2C537.6,0,542.1,1.3,545.2,3.7z M527.2,17.6
	c0,4.1,1.6,6.1,4.9,6.1s4.9-2,4.9-6s-1.6-6.1-4.9-6.1S527.2,13.6,527.2,17.6L527.2,17.6z"/>
<path class="st2" d="M559.5,32.9V15.6l-6.6,2.2V6.5l7.4-5.6h14.9v32L559.5,32.9z"/>
<path class="st2" d="M582.2,15.3c-1.7-1.5-2.6-3.7-2.5-5.9c0-6.2,5.8-9.1,18-9.1s18,2.9,18,9.1c0.1,2.2-0.8,4.4-2.5,5.9
	c-1,0.9-2.1,1.2-4.4,1.7c1.7,0.2,3.4,0.9,4.7,2.1c1.6,1.4,2.5,3.4,2.5,5.5c0.1,2.9-1.5,5.5-4,6.9c-3,1.6-6.7,2.2-14.2,2.2
	s-11.2-0.6-14.3-2.2c-2.5-1.4-4-4-4-6.9c0-2.1,0.9-4.1,2.5-5.5c1.3-1.1,2.9-1.9,4.7-2.1C584.3,16.5,583.3,16.1,582.2,15.3z
	 M593.7,12c0,2.2,1.5,3.5,4.3,3.5s4.2-1.3,4.2-3.5s-1.6-3.5-4.1-3.5C595.2,8.5,593.7,9.8,593.7,12z M593.7,23.1
	c0,2.2,1.4,3.4,4.1,3.4s4.1-1.2,4.1-3.4s-1.4-3.3-4-3.3C595.2,19.8,593.7,20.9,593.7,23.1L593.7,23.1z"/>
</svg>
