<?xml version="1.0" encoding="utf-8"?>
<!-- Generator: Adobe Illustrator 22.1.0, SVG Export Plug-In . SVG Version: 6.00 Build 0)  -->
<svg version="1.1" id="Layer_1" xmlns="http://www.w3.org/2000/svg" xmlns:xlink="http://www.w3.org/1999/xlink" x="0px" y="0px"
	 width="1224px" height="792px" viewBox="0 0 1224 792" style="enable-background:new 0 0 1224 792;" xml:space="preserve">
<g>
	<path style="fill:#F1D77E;" d="M87.9,82.8c0.1,0,0.2,0,0.3,0H68.6v6.1l-2.5-4.9v-1.1H44.6v7.9h9.8v-4.9h11.7l2.5,4.9h9.8v-6l4.7,6
		h11.4l0-2L87.9,82.8z"/>
	<path style="fill:#F1D77E;" d="M146.6,88.8l-2.9-5.9c0-0.4,0-0.6,0-0.7l-5.2,0.5v2.4h-4.8h-9.9c-0.7-0.1-1.3-0.2-2.1-0.3v0.3v3.1
		l-3.1,0.6v-2.3h-12v-1.3h12v-1.1H96.9v4.7h-2.5v1.9h2.5h21.8l3.1-0.6c4.1,0.7,6.7,1,10.6,1c2.5,0,5-0.1,7.3-1
		c1.1-0.5,2.2-1.2,2.9-2.2c0.7-0.9,0.9-2,1.1-3.1l2.9,5.9h9.8v-5.9h4.9v5.9h9.8v-7.9h-24.5V88.8z"/>
</g>
<g>
	<path style="fill:#ECC953;" d="M87.9,80.9c0.1,0,0.2,0,0.3,0H68.6v6.1L66.1,82v-1.1H44.6v7.9h9.8v-4.9h11.7l2.5,4.9h9.8v-6l4.7,6
		h11.4l0-2L87.9,80.9z"/>
	<path style="fill:#ECC953;" d="M146.6,86.9l-2.9-5.9c0-0.4,0-0.6,0-0.7l-5.2,0.5v2.4h-4.8h-9.9c-0.7-0.1-1.3-0.2-2.1-0.3v0.3v3
		l-3.1,0.6v-2.3h-12v-1.3h12v-1.1H96.9v4.7h-2.5v1.9h2.5h21.8l3.1-0.6c4.1,0.7,6.7,1,10.6,1c2.5,0,5-0.1,7.3-1
		c1.1-0.5,2.2-1.2,2.9-2.2c0.7-0.9,0.9-2,1.1-3.1l2.9,5.9h9.8v-5.9h4.9v5.9h9.8v-7.9h-24.5V86.9z"/>
</g>
<g>
	<path style="fill:#E7BC27;" d="M87.9,79c0.1,0,0.2,0,0.3,0H68.6v6l-2.5-4.9V79H44.6v7.9h9.8V82h11.7l2.5,4.9h9.8v-6l4.7,6h11.4l0-2
		L87.9,79z"/>
	<path style="fill:#E7BC27;" d="M146.6,85l-2.9-5.9c0-0.4,0-0.6,0-0.7l-5.2,0.5v2.4h-4.8h-9.9c-0.7-0.1-1.3-0.2-2.1-0.3v0.3v3
		l-3.1,0.6v-2.2h-12v-1.3h12v-1.1H96.9V85h-2.5v1.9h2.5h21.8l3.1-0.6c4.1,0.7,6.7,1,10.6,1c2.5,0,5-0.1,7.3-1
		c1.1-0.5,2.2-1.2,2.9-2.2c0.7-0.9,0.9-2,1.1-3.1l2.9,5.9h9.8V81h4.9v5.9h9.8V79h-24.5V85z"/>
</g>
<g>
	<path style="fill:#EDC07C;" d="M87.9,77.1c0.1,0,0.2,0,0.3,0H68.6v6.1l-2.5-4.9v-1.1H44.6V85h9.8v-4.9h11.7l2.5,4.9h9.8v-6l4.7,6
		h11.4l0-2L87.9,77.1z"/>
	<path style="fill:#EDC07C;" d="M146.6,83.2l-2.8-6.3l0,0.8c0-0.6,0-1.1,0-1.1l-5.2,0.5v2.4h-4.8h-9.9c-0.7-0.1-1.3-0.2-2.1-0.3v0.3
		v3.1l-3.1,0.6v-2.3h-12v-1.3h12v-1.1H96.9v4.7h-2.5V85h2.5h21.8l3.1-0.6c4.1,0.7,6.7,1,10.6,1c2.5,0,5-0.1,7.3-1
		c1.1-0.5,2.2-1.2,2.9-2.2c0.7-0.9,0.9-2,1.1-3.1l2.9,5.9h9.8v-5.9h4.9V85h9.8v-7.9h-24.5V83.2z"/>
</g>
<g>
	<path style="fill:#E8AC52;" d="M87.9,75.3c0.1,0,0.2,0,0.3,0H68.6v6.1l-2.5-4.9v-1.2H44.6v7.9h9.8v-4.9h11.7l2.5,4.9h9.8v-6l4.7,6
		h11.4l0-2L87.9,75.3z"/>
	<path style="fill:#E8AC52;" d="M146.6,81.4l-2.8-6.4c0-0.2,0-0.3,0-0.3l-5.2,0.5v2.4h-4.8h-9.9c-0.7-0.1-1.3-0.2-2.1-0.3v0.3v3.1
		l-3.1,0.6V79h-12v-1.3h12v-1.1H96.9v4.8h-2.5v1.8h2.5h21.8l3.1-0.6c4.1,0.7,6.7,1,10.6,1c2.5,0,5-0.1,7.3-1
		c1.1-0.5,2.2-1.2,2.9-2.2c0.7-0.9,0.9-2,1.1-3.1l2.9,5.9h9.8v-5.9h4.9v5.9h9.8v-7.9h-24.5V81.4z"/>
</g>
<g>
	<polygon style="fill:#E19626;" points="146.6,81.4 156.4,81.4 156.4,75.4 161.3,75.4 161.3,81.4 171.1,81.4 171.1,73.4 146.6,73.4 
			"/>
	<polygon style="fill:#E19626;" points="118.8,79.3 118.8,77.2 106.7,77.2 106.7,75.9 118.8,75.9 118.8,74.8 96.9,74.8 96.9,81.4 
		118.8,81.4 121.8,80.8 121.8,78.7 	"/>
	<path style="fill:#E19626;" d="M143.9,72.9l-5.3,0.5v2.4h-4.8h-9.9c-0.7-0.1-1.3-0.2-2.1-0.3v0.3v4.9c4.1,0.7,6.7,1,10.6,1
		c2.5,0,5-0.1,7.3-1c1.1-0.5,2.2-1.2,2.9-2.2c0.7-0.9,0.9-2,1.1-3.1c0,0,0-0.2,0-0.4l0,0l2.8,6.4l0-2L143.9,72.9z"/>
	<path style="fill:#E19626;" d="M94.5,79.3l-6.6-5.9c0.1,0,0.2,0,0.3,0H68.6v7.9h9.8v-6l4.7,6h11.4h2.5l0-2H94.5z"/>
	<polygon style="fill:#E19626;" points="66.1,74.4 66.1,73.4 44.6,73.4 44.6,81.4 54.4,81.4 54.4,76.4 66.1,76.4 68.6,81.4 
		68.6,79.3 	"/>
</g>
<g>
	<path style="fill:#DB8767;" d="M87.9,71.4c0.1,0,0.2,0,0.3,0H68.6v6.1l-2.5-4.9v-1.1H44.6v7.9h9.8v-4.9h11.7l2.5,4.9h9.8v-6l4.7,6
		h11.4l0-2L87.9,71.4z"/>
	<path style="fill:#DB8767;" d="M146.6,77.5l-2.9-5.9c0-0.4,0-0.6,0-0.7l-5.2,0.5v2.4h-4.8h-9.9c-0.7-0.1-1.3-0.2-2.1-0.3v0.3v3.1
		l-3.1,0.6v-2.3h-12v-1.3h12v-1.1H96.9v4.7h-2.5v1.9h2.5h21.8l3.1-0.6c4.1,0.7,6.7,1,10.6,1c2.5,0,5-0.1,7.3-1
		c1.1-0.5,2.2-1.2,2.9-2.2c0.7-0.9,0.9-2,1.1-3.1l2.9,5.9h9.8v-5.9h4.9v5.9h9.8v-7.9h-24.5V77.5z"/>
</g>
<g>
	<path style="fill:#D16643;" d="M87.9,69.6c0.1,0,0.2,0,0.3,0H68.6v6.1l-2.5-4.9v-1.1H44.6v7.9h9.8v-4.9h11.7l2.5,4.9h9.8v-6l4.7,6
		h11.4l0-2L87.9,69.6z"/>
	<path style="fill:#D16643;" d="M146.6,75.6l-2.9-5.9c0-0.4,0-0.6,0-0.7l-5.2,0.5V72h-4.8h-9.9c-0.7-0.1-1.3-0.2-2.1-0.3V72v3
		l-3.1,0.6v-2.3h-12V72h12v-1.1H96.9v4.7h-2.5v1.9h2.5h21.8l3.1-0.6c4.1,0.7,6.7,1,10.6,1c2.5,0,5-0.1,7.3-1
		c1.1-0.5,2.2-1.2,2.9-2.2c0.7-0.9,0.9-2,1.1-3.1l2.9,5.9h9.8v-5.9h4.9v5.9h9.8v-7.9h-24.5V75.6z"/>
</g>
<g>
	<path style="fill:#C94028;" d="M87.9,67.7c0.1,0,0.2,0,0.3,0H68.6v6l-2.5-4.9v-1.1H44.6v7.9h9.8v-4.9h11.7l2.5,4.9h9.8v-6l4.7,6
		h11.4l0-2L87.9,67.7z"/>
	<path style="fill:#C94028;" d="M146.6,73.7l-2.9-5.9c0-0.4,0-0.6,0-0.7l-5.2,0.5v2.4h-4.8h-9.9c-0.7-0.1-1.3-0.2-2.1-0.3v0.3v3
		l-3.1,0.6v-2.2h-12v-1.3h12V69H96.9v4.7h-2.5v1.9h2.5h21.8l3.1-0.6c4.1,0.7,6.7,1,10.6,1c2.5,0,5-0.1,7.3-1
		c1.1-0.5,2.2-1.2,2.9-2.2c0.7-0.9,0.9-2,1.1-3.1l2.9,5.9h9.8v-5.9h4.9v5.9h9.8v-7.9h-24.5V73.7z"/>
</g>
<g>
	<path style="fill:#C599B2;" d="M87.9,65.8c0.1,0,0.2,0,0.3,0H68.6v6.1l-2.5-4.9v-1.1H44.6v7.9h9.8v-4.9h11.7l2.5,4.9h9.8v-6l4.7,6
		h11.4l0-2L87.9,65.8z"/>
	<path style="fill:#C599B2;" d="M146.6,71.8l-2.8-6.3l0,0.8c0-0.6,0-1.1,0-1.1l-5.2,0.5v2.4h-4.8h-9.9c-0.7-0.1-1.3-0.2-2.1-0.3v0.3
		v3.1l-3.1,0.6v-2.3h-12v-1.3h12v-1.1H96.9v4.7h-2.5v1.9h2.5h21.8l3.1-0.6c4.1,0.7,6.7,1,10.6,1c2.5,0,5-0.1,7.3-1
		c1.1-0.5,2.2-1.2,2.9-2.2c0.7-0.9,0.9-2,1.1-3.1l2.9,5.9h9.8v-5.9h4.9v5.9h9.8v-7.9h-24.5V71.8z"/>
</g>
<g>
	<path style="fill:#B67E9F;" d="M87.9,63.9c0.1,0,0.2,0,0.3,0H68.6V70l-2.5-4.9v-1.2H44.6v7.9h9.8v-4.9h11.7l2.5,4.9h9.8v-6l4.7,6
		h11.4l0-2L87.9,63.9z"/>
	<path style="fill:#B67E9F;" d="M146.6,70l-2.8-6.4c0-0.2,0-0.3,0-0.3l-5.2,0.5v2.4h-4.8h-9.9c-0.7-0.1-1.3-0.2-2.1-0.3v0.3v3.1
		l-3.1,0.6v-2.3h-12v-1.3h12v-1.1H96.9V70h-2.5v1.8h2.5h21.8l3.1-0.6c4.1,0.7,6.7,1,10.6,1c2.5,0,5-0.1,7.3-1
		c1.1-0.5,2.2-1.2,2.9-2.2c0.7-0.9,0.9-2,1.1-3.1l2.9,5.9h9.8v-5.9h4.9v5.9h9.8v-7.9h-24.5V70z"/>
</g>
<g>
	<polygon style="fill:#A9648E;" points="146.6,70 156.4,70 156.4,64.1 161.3,64.1 161.3,70 171.1,70 171.1,62.1 146.6,62.1 	"/>
	<polygon style="fill:#A9648E;" points="118.8,68 118.8,65.9 106.7,65.9 106.7,64.5 118.8,64.5 118.8,63.4 96.9,63.4 96.9,70 
		118.8,70 121.8,69.4 121.8,67.4 	"/>
	<path style="fill:#A9648E;" d="M143.9,61.5l-5.3,0.5v2.4h-4.8h-9.9c-0.7-0.1-1.3-0.2-2.1-0.3v0.3v4.9c4.1,0.7,6.7,1,10.6,1
		c2.5,0,5-0.1,7.3-1c1.1-0.5,2.2-1.2,2.9-2.2c0.7-0.9,0.9-2,1.1-3.1c0,0,0-0.2,0-0.4l0,0l2.8,6.4l0-2L143.9,61.5z"/>
	<path style="fill:#A9648E;" d="M94.5,68l-6.6-5.9c0.1,0,0.2,0,0.3,0H68.6V70h9.8v-6l4.7,6h11.4h2.5l0-2H94.5z"/>
	<polygon style="fill:#A9648E;" points="66.1,63 66.1,62.1 44.6,62.1 44.6,70 54.4,70 54.4,65.1 66.1,65.1 68.6,70 68.6,68 	"/>
</g>
<g>
	<path style="fill:#7D97BB;" d="M87.9,60.3c0.1,0,0.2,0,0.3,0H68.6v6.1l-2.5-4.9v-1.1H44.6v7.9h9.8v-4.9h11.7l2.5,4.9h9.8v-6l4.7,6
		h11.4l0-2L87.9,60.3z"/>
	<path style="fill:#7D97BB;" d="M146.6,66.3l-2.9-5.9c0-0.4,0-0.6,0-0.7l-5.2,0.5v2.4h-4.8h-9.9c-0.7-0.1-1.3-0.2-2.1-0.3v0.3v3.1
		l-3.1,0.6V64h-12v-1.3h12v-1.1H96.9v4.7h-2.5v1.9h2.5h21.8l3.1-0.6c4.1,0.7,6.7,1,10.6,1c2.5,0,5-0.1,7.3-1
		c1.1-0.5,2.2-1.2,2.9-2.2c0.7-0.9,0.9-2,1.1-3.1l2.9,5.9h9.8v-5.9h4.9v5.9h9.8v-7.9h-24.5V66.3z"/>
</g>
<g>
	<path style="fill:#577FAB;" d="M87.9,58.4c0.1,0,0.2,0,0.3,0H68.6v6.1l-2.5-4.9v-1.1H44.6v7.9h9.8v-4.9h11.7l2.5,4.9h9.8v-6l4.7,6
		h11.4l0-2L87.9,58.4z"/>
	<path style="fill:#577FAB;" d="M146.6,64.4l-2.9-5.9c0-0.4,0-0.6,0-0.7l-5.2,0.5v2.4h-4.8h-9.9c-0.7-0.1-1.3-0.2-2.1-0.3v0.3v3
		l-3.1,0.6v-2.3h-12v-1.3h12v-1.1H96.9v4.7h-2.5v1.9h2.5h21.8l3.1-0.6c4.1,0.7,6.7,1,10.6,1c2.5,0,5-0.1,7.3-1
		c1.1-0.5,2.2-1.2,2.9-2.2c0.7-0.9,0.9-2,1.1-3.1l2.9,5.9h9.8v-5.9h4.9v5.9h9.8v-7.9h-24.5V64.4z"/>
</g>
<g>
	<path style="fill:#256B9D;" d="M87.9,56.5c0.1,0,0.2,0,0.3,0H68.6v6l-2.5-4.9v-1.1H44.6v7.9h9.8v-4.9h11.7l2.5,4.9h9.8v-6l4.7,6
		h11.4l0-2L87.9,56.5z"/>
	<path style="fill:#256B9D;" d="M146.6,62.5l-2.9-5.9c0-0.4,0-0.6,0-0.7l-5.2,0.5v2.4h-4.8h-9.9c-0.7-0.1-1.3-0.2-2.1-0.3v0.3v3
		l-3.1,0.6v-2.2h-12V59h12v-1.1H96.9v4.7h-2.5v1.9h2.5h21.8l3.1-0.6c4.1,0.7,6.7,1,10.6,1c2.5,0,5-0.1,7.3-1
		c1.1-0.5,2.2-1.2,2.9-2.2c0.7-0.9,0.9-2,1.1-3.1l2.9,5.9h9.8v-5.9h4.9v5.9h9.8v-7.9h-24.5V62.5z"/>
</g>
<g>
	<path style="fill:#66BA99;" d="M87.9,54.6c0.1,0,0.2,0,0.3,0H68.6v6.1l-2.5-4.9v-1.1H44.6v7.9h9.8v-4.9h11.7l2.5,4.9h9.8v-6l4.7,6
		h11.4l0-2L87.9,54.6z"/>
	<path style="fill:#66BA99;" d="M146.6,60.7l-2.8-6.3l0,0.8c0-0.6,0-1.1,0-1.1l-5.2,0.5V57h-4.8h-9.9c-0.7-0.1-1.3-0.2-2.1-0.3V57
		v3.1l-3.1,0.6v-2.3h-12v-1.3h12v-1.1H96.9v4.7h-2.5v1.9h2.5h21.8l3.1-0.6c4.1,0.7,6.7,1,10.6,1c2.5,0,5-0.1,7.3-1
		c1.1-0.5,2.2-1.2,2.9-2.2c0.7-0.9,0.9-2,1.1-3.1l2.9,5.9h9.8v-5.9h4.9v5.9h9.8v-7.9h-24.5V60.7z"/>
</g>
<g>
	<path style="fill:#539A70;" d="M87.9,52.8c0.1,0,0.2,0,0.3,0H68.6v6.1l-2.5-4.9v-1.2H44.6v7.9h9.8v-4.9h11.7l2.5,4.9h9.8v-6l4.7,6
		h11.4l0-2L87.9,52.8z"/>
	<path style="fill:#539A70;" d="M146.6,58.9l-2.8-6.4c0-0.2,0-0.3,0-0.3l-5.2,0.5v2.4h-4.8h-9.9c-0.7-0.1-1.3-0.2-2.1-0.3v0.3v3.1
		l-3.1,0.6v-2.3h-12v-1.3h12v-1.1H96.9v4.8h-2.5v1.8h2.5h21.8l3.1-0.6c4.1,0.7,6.7,1,10.6,1c2.5,0,5-0.1,7.3-1
		c1.1-0.5,2.2-1.2,2.9-2.2c0.7-0.9,0.9-2,1.1-3.1l2.9,5.9h9.8v-5.9h4.9v5.9h9.8v-7.9h-24.5V58.9z"/>
</g>
<g>
	<polygon style="fill:#018A55;" points="146.6,58.9 156.4,58.9 156.4,53 161.3,53 161.3,58.9 171.1,58.9 171.1,50.9 146.6,50.9 	"/>
	<polygon style="fill:#018A55;" points="118.8,56.8 118.8,54.7 106.7,54.7 106.7,53.4 118.8,53.4 118.8,52.3 96.9,52.3 96.9,58.9 
		118.8,58.9 121.8,58.3 121.8,56.3 	"/>
	<path style="fill:#018A55;" d="M143.9,50.4l-5.3,0.5v2.4h-4.8h-9.9c-0.7-0.1-1.3-0.2-2.1-0.3v0.3v4.9c4.1,0.7,6.7,1,10.6,1
		c2.5,0,5-0.1,7.3-1c1.1-0.5,2.2-1.2,2.9-2.2c0.7-0.9,0.9-2,1.1-3.1c0,0,0-0.2,0-0.4l0,0l2.8,6.4l0-2L143.9,50.4z"/>
	<path style="fill:#018A55;" d="M94.5,56.8L87.9,51c0.1,0,0.2,0,0.3,0H68.6v7.9h9.8v-6l4.7,6h11.4h2.5l0-2H94.5z"/>
	<polygon style="fill:#018A55;" points="66.1,51.9 66.1,50.9 44.6,50.9 44.6,58.9 54.4,58.9 54.4,53.9 66.1,53.9 68.6,58.9 
		68.6,56.8 	"/>
</g>
<rect y="56.8" style="fill:#018A55;" width="44.6" height="2"/>
<rect y="58.9" style="fill:#539A70;" width="44.6" height="1.8"/>
<rect y="60.7" style="fill:#66BA99;" width="44.6" height="1.9"/>
<polygon style="fill:#018A55;" points="171.1,56.8 568.2,56.8 568.2,58.9 171.1,58.9 "/>
<rect y="62.5" style="fill:#256B9D;" width="44.6" height="1.9"/>
<rect y="64.4" style="fill:#577FAB;" width="44.6" height="1.9"/>
<rect y="66.3" style="fill:#7D97BB;" width="44.6" height="1.9"/>
<rect y="68.2" style="fill:#A9648E;" width="44.6" height="1.8"/>
<rect y="70" style="fill:#B67E9F;" width="44.6" height="1.8"/>
<rect y="71.8" style="fill:#C599B2;" width="44.6" height="1.9"/>
<rect y="73.7" style="fill:#C94028;" width="44.6" height="1.9"/>
<rect y="75.6" style="fill:#D16643;" width="44.6" height="1.9"/>
<rect y="77.5" style="fill:#DB8767;" width="44.6" height="1.9"/>
<rect y="79.3" style="fill:#E19626;" width="44.6" height="2"/>
<rect y="81.4" style="fill:#E8AC52;" width="44.6" height="1.8"/>
<rect y="83.2" style="fill:#EDC07C;" width="44.6" height="1.9"/>
<rect y="85" style="fill:#E7BC27;" width="44.6" height="1.9"/>
<rect y="86.9" style="fill:#ECC953;" width="44.6" height="1.9"/>
<rect y="88.8" style="fill:#F1D77E;" width="44.6" height="1.9"/>
<polygon style="fill:#539A70;" points="171.1,58.9 568.2,58.9 568.2,60.7 171.1,60.7 "/>
<polygon style="fill:#66BA99;" points="171.1,60.7 568.2,60.7 568.2,62.5 171.1,62.5 "/>
<rect x="171.1" y="62.5" style="fill:#256B9D;" width="397.1" height="1.9"/>
<rect x="171.1" y="64.4" style="fill:#577FAB;" width="397.1" height="1.9"/>
<rect x="171.1" y="66.3" style="fill:#7D97BB;" width="397.1" height="1.9"/>
<rect x="171.1" y="68.2" style="fill:#A9648E;" width="397.1" height="1.8"/>
<rect x="171.1" y="70" style="fill:#B67E9F;" width="397.1" height="1.8"/>
<rect x="171.1" y="71.8" style="fill:#C599B2;" width="397.1" height="1.9"/>
<rect x="171.1" y="73.7" style="fill:#C94028;" width="397.1" height="1.9"/>
<rect x="171.1" y="75.6" style="fill:#D16643;" width="397.1" height="1.9"/>
<rect x="171.1" y="77.5" style="fill:#DB8767;" width="397.1" height="1.9"/>
<rect x="171.1" y="79.3" style="fill:#E19626;" width="397.1" height="2"/>
<rect x="171.1" y="81.4" style="fill:#E8AC52;" width="397.1" height="1.8"/>
<rect x="171.1" y="83.2" style="fill:#EDC07C;" width="397.1" height="1.9"/>
<rect x="171.1" y="85" style="fill:#E7BC27;" width="397.1" height="1.9"/>
<rect x="171.1" y="86.9" style="fill:#ECC953;" width="397.1" height="1.9"/>
<rect x="171.1" y="88.8" style="fill:#F1D77E;" width="397.1" height="1.9"/>
<path style="fill:#313733;" d="M54.4,51.9v4.9h-9.8v-19h21.5v6.4H54.4v1.9h11.7v5.8H54.4z"/>
<path style="fill:#313733;" d="M83.1,56.8l-4.7-6v6h-9.8v-19H87c2.3,0,3.7,0.3,4.8,1.3c1.3,1,2.1,2.6,2.1,4.3c0,1.7-0.7,3.2-2.1,4.2
	c-1.1,0.8-2,1.2-3.9,1.4l6.6,7.9H83.1z M81.4,46.8c1,0,1.4-0.1,1.9-0.3c0.6-0.3,0.9-1,0.9-1.8c0-1.3-0.6-1.8-2.2-1.8h-3.6v3.9H81.4z
	"/>
<path style="fill:#313733;" d="M96.9,56.8v-19h21.8v6.1h-12v1.8h12v4.6h-12v1.6h12v5H96.9z"/>
<path style="fill:#313733;" d="M121.8,51c4.3,0.7,7.3,0.9,10.6,0.9c0.9,0,1.3-0.3,1.3-0.9c0-0.5-0.3-0.7-1.3-0.7h-1.6
	c-0.8,0-2.5-0.1-3.6-0.2c-2.4-0.3-3.9-0.9-4.8-2.2c-0.7-0.9-1.1-2.2-1.1-3.7c0-2.2,0.8-3.9,2.3-5c1.7-1.3,5.1-2,9.5-2
	c3.4,0,6.8,0.3,10,0.9v5.6c-1.5-0.3-5.4-0.6-7.7-0.7h-2.1c-1.3,0-1.8,0.3-1.8,0.9c0,0.5,0.4,0.8,1.1,0.8l3.4,0c2,0,3.8,0.3,4.9,0.7
	c1.8,0.7,3,2.6,3,4.7c0,2.1-1.1,4-3,5.2c-2,1.3-4.1,1.7-8.5,1.7c-3.9,0-6.5-0.2-10.6-1V51z"/>
<path style="fill:#313733;" d="M161.3,56.8v-5.9h-4.9v5.9h-9.8v-19h9.8v6.7h4.9v-6.7h9.8v19H161.3z"/>
<g>
	<path style="fill:#E19626;" d="M54,30.4c-0.9-0.1-2.2-0.2-3.3-0.2c-1.3,0-1.6,0.1-1.6,0.3c0,0.1,0,0.1,0.1,0.2
		c0.1,0.1,0.1,0.1,1.1,0.1c2.4,0,2.4,0,2.9,0.2c0.7,0.2,1.1,1,1.1,2c0,1.1-0.5,2-1.4,2.4c-0.8,0.3-1.9,0.5-3.5,0.5
		c-1,0-2.6-0.1-4.1-0.3l-0.2-2.3c1.5,0.2,2.6,0.3,3.4,0.3c0.9,0,1.5,0,1.6-0.1c0.1,0,0.1-0.1,0.1-0.2c0-0.2-0.1-0.2-0.4-0.2h-0.3
		l-0.5,0c-1.4,0-2.6-0.2-3.1-0.4c-0.8-0.4-1.2-1.2-1.2-2.2c0-1,0.4-1.8,1.2-2.2c0.6-0.3,1.8-0.5,3.8-0.5c1.3,0,3.2,0.1,4.2,0.2V30.4
		z"/>
	<path style="fill:#E19626;" d="M66.1,32.7c0,1.1-0.4,1.9-1.1,2.4c-0.9,0.6-2.3,0.9-4.3,0.9c-2,0-3.4-0.3-4.3-0.9
		c-0.7-0.5-1.1-1.3-1.1-2.4V28h4.4v4.4c0,0.9,0.2,1.2,0.9,1.2c0.7,0,0.9-0.3,0.9-1.2V28h4.4V32.7z"/>
	<path style="fill:#E19626;" d="M80.5,35.7V32c0-0.9-0.2-1.1-0.9-1.1c-0.8,0-1.1,0.3-1.1,1.2v3.6h-4.4v-3.5c0-0.9-0.2-1.2-1.1-1.2
		c-0.8,0-1,0.3-1,1.1v3.7h-4.4V28h4.2v1.3c0.8-1.1,1.6-1.5,3.3-1.5c1.1,0,1.9,0.2,2.5,0.6c0.3,0.3,0.4,0.5,0.6,1
		c0.3-0.6,0.5-0.8,0.8-1.1c0.6-0.4,1.4-0.6,2.5-0.6c2.4,0,3.5,1,3.5,3.1v4.8H80.5z"/>
	<path style="fill:#E19626;" d="M99.4,35.7V32c0-0.9-0.2-1.1-0.9-1.1c-0.8,0-1.1,0.3-1.1,1.2v3.6H93v-3.5c0-0.9-0.2-1.2-1.1-1.2
		c-0.8,0-1,0.3-1,1.1v3.7h-4.4V28h4.2v1.3c0.8-1.1,1.6-1.5,3.3-1.5c1.1,0,1.9,0.2,2.5,0.6c0.3,0.3,0.4,0.5,0.6,1
		c0.3-0.6,0.5-0.8,0.8-1.1c0.6-0.4,1.4-0.6,2.5-0.6c2.4,0,3.5,1,3.5,3.1v4.8H99.4z"/>
	<path style="fill:#E19626;" d="M114.9,35.2c-2.2,0.5-3.3,0.7-4.7,0.7c-1.7,0-2.9-0.3-3.8-0.9s-1.3-1.6-1.3-3c0-1.4,0.6-2.7,1.5-3.3
		c0.9-0.6,2.2-0.9,4.1-0.9c2.2,0,3.6,0.5,4.4,1.4c0.5,0.6,0.8,1.7,0.8,2.8c0,0.2,0,0.4,0,0.7h-6.1c0,0.8,0.4,1,1.7,1
		c1.1,0,3-0.3,4.4-0.6L114.9,35.2z M112.3,30.9c0-0.4-0.1-0.5-0.2-0.8c-0.2-0.3-0.6-0.5-1.1-0.5c-0.9,0-1.3,0.4-1.4,1.3H112.3z"/>
	<path style="fill:#E19626;" d="M117,35.7V28h4.1v2c0.2-1,0.5-1.5,1-1.8c0.3-0.2,0.8-0.3,1.5-0.3c0.3,0,0.5,0,0.9,0.1v4.3
		c-2.5-0.1-3.2,0.3-3.2,1.6v1.9H117z"/>
</g>
<g>
	<path style="fill:#E7BC27;" d="M131.2,35.7v-2.5c1.7-0.6,3-1.1,3.9-1.7c0.8-0.5,1.1-0.8,1.1-1.3c0-0.5-0.3-0.8-0.9-0.8
		c-0.6,0-0.9,0.3-1.1,0.9c0,0.2-0.1,0.3-0.1,0.7H131c0-0.3,0-0.5,0-0.6c0-1.4,0.5-2.5,1.4-3.2c0.8-0.6,1.9-0.8,3.6-0.8
		c1.6,0,2.8,0.3,3.5,0.9c0.7,0.6,1.1,1.3,1.1,2.2c0,1.1-0.5,1.9-1.7,2.5c-0.6,0.3-1.1,0.5-2.5,1h4.2v2.7H131.2z"/>
	<path style="fill:#E7BC27;" d="M150.4,27.4c1,0.8,1.5,2,1.5,3.8c0,1.6-0.6,3.1-1.5,3.9c-0.8,0.7-1.9,1-3.7,1c-1.8,0-2.9-0.3-3.8-1
		c-0.9-0.8-1.4-2.2-1.4-3.9c0-1.7,0.6-3.1,1.6-3.8c0.8-0.5,2.3-0.9,3.7-0.9C148.2,26.3,149.5,26.7,150.4,27.4z M145.3,31.3
		c0,1.2,0.5,1.7,1.4,1.7c0.9,0,1.4-0.6,1.4-1.7s-0.5-1.7-1.4-1.7C145.8,29.6,145.3,30.2,145.3,31.3z"/>
	<path style="fill:#E7BC27;" d="M154.5,35.7v-5l-1.9,0.6v-3.2l2.1-1.6h4.3v9.1H154.5z"/>
	<path style="fill:#E7BC27;" d="M161,30.7c-0.5-0.4-0.7-1-0.7-1.7c0-1.8,1.6-2.6,5.1-2.6c3.5,0,5.1,0.8,5.1,2.6
		c0,0.7-0.3,1.3-0.7,1.7c-0.3,0.2-0.6,0.4-1.3,0.5c0.7,0.1,1,0.3,1.3,0.6c0.5,0.4,0.7,0.9,0.7,1.6c0,0.8-0.4,1.6-1.2,2
		c-0.9,0.5-1.9,0.6-4.1,0.6c-2.2,0-3.2-0.2-4.1-0.6c-0.7-0.4-1.2-1.1-1.2-2c0-0.6,0.2-1.2,0.7-1.6c0.4-0.3,0.7-0.5,1.3-0.6
		C161.6,31,161.3,30.9,161,30.7z M164.2,29.7c0,0.6,0.4,1,1.2,1c0.8,0,1.2-0.4,1.2-1c0-0.6-0.5-1-1.2-1
		C164.7,28.7,164.2,29.1,164.2,29.7z M164.3,32.9c0,0.6,0.4,1,1.2,1c0.8,0,1.2-0.3,1.2-0.9c0-0.6-0.4-0.9-1.2-0.9
		C164.7,32,164.3,32.3,164.3,32.9z"/>
</g>
<rect x="568.3" y="56.8" style="fill:#018A55;" width="655.7" height="2"/>
<rect x="568.2" y="58.9" style="fill:#539A70;" width="655.8" height="1.8"/>
<rect x="568.2" y="60.7" style="fill:#66BA99;" width="655.8" height="1.9"/>
<rect x="568.2" y="62.5" style="fill:#256B9D;" width="655.8" height="1.9"/>
<rect x="568.2" y="64.4" style="fill:#577FAB;" width="655.8" height="1.9"/>
<rect x="568.2" y="66.3" style="fill:#7D97BB;" width="655.8" height="1.9"/>
<rect x="568.2" y="68.2" style="fill:#A9648E;" width="655.8" height="1.8"/>
<rect x="568.2" y="70" style="fill:#B67E9F;" width="655.8" height="1.8"/>
<rect x="568.2" y="71.8" style="fill:#C599B2;" width="655.8" height="1.9"/>
<rect x="568.2" y="73.7" style="fill:#C94028;" width="655.8" height="1.9"/>
<rect x="568.2" y="75.6" style="fill:#D16643;" width="655.8" height="1.9"/>
<rect x="568.2" y="77.5" style="fill:#DB8767;" width="655.8" height="1.9"/>
<rect x="568.2" y="79.3" style="fill:#E19626;" width="655.8" height="2"/>
<rect x="568.2" y="81.4" style="fill:#E8AC52;" width="655.8" height="1.8"/>
<rect x="568.2" y="83.2" style="fill:#EDC07C;" width="655.8" height="1.9"/>
<rect x="568.2" y="85" style="fill:#E7BC27;" width="655.8" height="1.9"/>
<rect x="568.2" y="86.9" style="fill:#ECC953;" width="655.8" height="1.9"/>
<rect x="568.2" y="88.8" style="fill:#F1D77E;" width="655.8" height="1.9"/>
</svg>
